<?xml version="1.0" encoding="iso-8859-1"?>
<!-- Generator: Adobe Illustrator 19.0.0, SVG Export Plug-In . SVG Version: 6.00 Build 0)  -->
<svg version="1.1" id="Capa_1" fill="#d49943" xmlns="http://www.w3.org/2000/svg" xmlns:xlink="http://www.w3.org/1999/xlink" x="0px" y="0px"
	 viewBox="0 0 512 512" width="50" height="50" style="enable-background:new 0 0 512 512;" xml:space="preserve">
<g>
	<g>
		<path d="M364.61,262.119l-53.237-92.21C334.771,152.794,350,125.144,350,94c0-51.832-42.168-94-94-94c-51.832,0-94,42.168-94,94
			c0,51.832,42.168,94,94,94c13.544,0,26.425-2.884,38.069-8.063l53.221,92.182c1.853,3.208,5.213,5.001,8.67,5.001
			c1.696,0,3.416-0.432,4.99-1.341C365.733,273.018,367.372,266.902,364.61,262.119z M190.949,129.251
			C185.243,118.765,182,106.754,182,94c0-40.804,33.196-74,74-74s74,33.196,74,74c0,12.756-3.245,24.768-8.951,35.256
			c-5.128-8.953-14.005-15.578-24.729-17.578l-3.106-0.579c0.826-3.132,1.27-6.417,1.27-9.804v-8.912
			c0-21.222-17.265-38.486-38.486-38.486c-21.221,0-38.486,17.265-38.486,38.486v8.912c0,3.388,0.444,6.672,1.27,9.804l-3.106,0.579
			C204.954,113.678,196.078,120.301,190.949,129.251z M274.483,92.382v8.912c0,10.193-8.293,18.486-18.486,18.486
			s-18.486-8.293-18.486-18.486v-8.912c0-10.193,8.293-18.486,18.486-18.486S274.483,82.189,274.483,92.382z M305.818,148.669
			C292.66,160.67,275.17,168,256,168c-19.173,0-36.665-7.332-49.824-19.337v-1.475c0-7.761,5.537-14.426,13.166-15.849l10.402-1.94
			c6.881,6.433,16.113,10.382,26.253,10.382c10.141,0,19.372-3.949,26.254-10.382l10.401,1.94
			c7.629,1.423,13.166,8.088,13.166,15.849V148.669z"/>
	</g>
</g>
<g>
	<g>
		<path d="M418,324c-48.454,0-88.459,36.853-93.468,84h-62.865c-5.522,0-10,4.477-10,10s4.478,10,10,10h62.865
			c5.009,47.147,45.014,84,93.468,84c51.832,0,94-42.168,94-94C512,366.168,469.832,324,418,324z M467.818,472.669
			C454.66,484.67,437.17,492,418,492c-19.173,0-36.665-7.332-49.824-19.337v-1.475c0-7.761,5.537-14.426,13.166-15.849l10.402-1.94
			c6.881,6.433,16.113,10.382,26.253,10.382c10.141,0,19.372-3.949,26.254-10.382l10.401,1.94
			c7.629,1.423,13.166,8.088,13.166,15.849V472.669z M399.511,425.294v-8.912c0-10.193,8.293-18.486,18.486-18.486
			s18.486,8.293,18.486,18.486v8.912c0,10.193-8.293,18.486-18.486,18.486S399.511,435.488,399.511,425.294z M483.049,453.256
			c-5.128-8.953-14.005-15.578-24.729-17.578l-3.106-0.579c0.826-3.132,1.27-6.417,1.27-9.804v-8.912
			c0-21.222-17.265-38.486-38.486-38.486c-21.221,0-38.486,17.265-38.486,38.486v8.912c0,3.388,0.444,6.672,1.27,9.804l-3.106,0.579
			c-10.722,2-19.598,8.623-24.727,17.573C347.243,442.765,344,430.754,344,418c0-40.804,33.196-74,74-74c40.804,0,74,33.196,74,74
			C492,430.756,488.755,442.768,483.049,453.256z"/>
	</g>
</g>
<g>
	<g>
		<path d="M130.498,331.376l50.162-86.883c2.762-4.783,1.123-10.899-3.66-13.66c-4.784-2.761-10.898-1.122-13.66,3.66
			l-52.546,91.012C105.343,324.518,99.731,324,94,324c-51.832,0-94,42.168-94,94c0,51.832,42.168,94,94,94c51.832,0,94-42.168,94-94
			C188,379.105,164.254,345.652,130.498,331.376z M143.818,472.669C130.66,484.67,113.17,492,94,492
			c-19.173,0-36.665-7.332-49.824-19.337v-1.475c0-7.761,5.537-14.426,13.166-15.849l10.402-1.94
			c6.881,6.433,16.113,10.382,26.253,10.382c10.141,0,19.372-3.949,26.254-10.382l10.401,1.94
			c7.629,1.423,13.166,8.088,13.166,15.849V472.669z M75.511,425.294v-8.912c0-10.193,8.293-18.486,18.486-18.486
			s18.486,8.293,18.486,18.486v8.912c0,10.193-8.293,18.486-18.486,18.486S75.511,435.487,75.511,425.294z M159.049,453.256
			c-5.128-8.953-14.005-15.578-24.729-17.578l-3.106-0.579c0.826-3.132,1.27-6.417,1.27-9.804v-8.912
			c0-21.222-17.265-38.486-38.486-38.486s-38.486,17.265-38.486,38.486v8.912c0,3.388,0.444,6.672,1.27,9.804l-3.106,0.579
			c-10.722,2-19.598,8.623-24.727,17.573C23.243,442.765,20,430.754,20,418c0-40.804,33.196-74,74-74s74,33.196,74,74
			C168,430.756,164.755,442.768,159.049,453.256z"/>
	</g>
</g>
<g>
	<g>
		<path d="M230.74,410.93c-1.86-1.86-4.44-2.93-7.07-2.93s-5.21,1.07-7.07,2.93c-1.87,1.86-2.93,4.44-2.93,7.07s1.06,5.21,2.93,7.07
			c1.86,1.86,4.44,2.93,7.07,2.93s5.21-1.07,7.07-2.93c1.859-1.86,2.93-4.44,2.93-7.07S232.6,412.79,230.74,410.93z"/>
	</g>
</g>
<g>
	<g>
		<path d="M379.74,291.76c-1.86-1.86-4.431-2.93-7.07-2.93c-2.63,0-5.21,1.07-7.07,2.93c-1.86,1.86-2.93,4.43-2.93,7.07
			c0,2.63,1.07,5.21,2.93,7.07s4.44,2.93,7.07,2.93c2.64,0,5.21-1.07,7.07-2.93c1.869-1.87,2.93-4.44,2.93-7.07
			S381.609,293.62,379.74,291.76z"/>
	</g>
</g>
<g>
	<g>
		<path d="M198.299,199.11c-1.86-1.86-4.44-2.93-7.07-2.93s-5.21,1.07-7.069,2.93c-1.86,1.87-2.931,4.44-2.931,7.08
			c0,2.63,1.07,5.2,2.931,7.06c1.859,1.87,4.439,2.94,7.069,2.94s5.21-1.07,7.07-2.94c1.86-1.86,2.93-4.43,2.93-7.06
			C201.229,203.55,200.16,200.98,198.299,199.11z"/>
	</g>
</g>
<g>
</g>
<g>
</g>
<g>
</g>
<g>
</g>
<g>
</g>
<g>
</g>
<g>
</g>
<g>
</g>
<g>
</g>
<g>
</g>
<g>
</g>
<g>
</g>
<g>
</g>
<g>
</g>
<g>
</g>
</svg>
