<svg id="Capa_1" enable-background="new 0 0 512 512" fill="#d49943" height="50" viewBox="0 0 512 512" width="50" xmlns="http://www.w3.org/2000/svg"><g><path d="m501.312 283.039-34.384-34.385c-3.905-3.902-10.235-3.904-14.142 0-3.905 3.905-3.905 10.237 0 14.142l34.384 34.385c6.472 6.472 6.472 17.002.01 23.463-6.478 6.46-17.017 6.458-23.482.011l-125.755-125.784 23.877-23.043 27.443 27.444c1.953 1.952 4.512 2.929 7.071 2.929s5.118-.977 7.071-2.929c3.905-3.905 3.905-10.237 0-14.142l-27.192-27.192 1.919-1.852c33.377-32.184 34.331-85.538 2.125-118.94-15.55-16.112-36.521-25.202-59.048-25.597-22.525-.384-43.803 7.952-59.906 23.496l-5.309 5.113-5.3-5.105c-16.111-15.551-37.359-23.875-59.901-23.503-22.519.395-43.484 9.485-59.035 25.597-15.549 16.111-23.891 37.39-23.488 59.916.403 22.525 9.499 43.486 25.609 59.02l1.909 1.842-125.122 125.124c-14.236 14.276-14.219 37.489.038 51.748 7.122 7.122 16.483 10.683 25.85 10.683 6.266 0 12.531-1.603 18.133-4.791v130.669c0 16.049 13.056 29.106 29.105 29.106h344.402c16.048 0 29.105-13.056 29.105-29.106v-130.669c5.598 3.184 11.861 4.785 18.13 4.785 9.371 0 18.745-3.559 25.882-10.677 6.892-6.892 10.688-16.084 10.688-25.879.001-9.795-3.795-18.985-10.687-25.879zm-373.046-186.336c-.308-17.183 6.044-33.403 17.882-45.669 11.84-12.266 27.819-19.187 44.995-19.489.391-.007.777-.01 1.167-.01 16.742 0 32.503 6.334 44.502 17.915l12.245 11.793c.001.001.003.002.004.003l11.612 11.216-30.7 29.63c-1.947 1.879-3.05 4.467-3.056 7.173s1.085 5.299 3.023 7.186l30.482 29.683-30.479 29.658c-3.958 3.851-4.045 10.182-.193 14.14 1.96 2.015 4.562 3.026 7.168 3.026 2.514 0 5.029-.941 6.972-2.833l37.842-36.822c1.935-1.882 3.025-4.466 3.026-7.165s-1.09-5.283-3.023-7.166l-30.451-29.654 30.731-29.659c1.952-1.884 3.055-4.48 3.056-7.193s-1.102-5.309-3.053-7.194l-11.619-11.222 4.785-4.608c12.269-11.842 28.463-18.205 45.675-17.897 17.185.302 33.169 7.222 45.006 19.486 24.548 25.459 23.825 66.128-1.617 90.661l-108.254 104.472-108.229-104.475c-12.266-11.828-19.192-27.804-19.499-44.986zm-103.42 223.952c-6.471-6.471-6.479-17.004-.028-23.473l125.361-125.365 23.887 23.059-125.766 125.77c-6.479 6.459-17 6.464-23.454.009zm152.29 39.96c-12.367 0-22.428-10.049-22.428-22.4 0-12.368 10.061-22.429 22.428-22.429 12.351 0 22.399 10.061 22.399 22.429 0 12.351-10.048 22.4-22.399 22.4zm-25.269 11.637c7.063 5.25 15.809 8.363 25.269 8.363 9.456 0 18.198-3.114 25.257-8.367 9.538 5.165 15.595 12.292 15.595 26.147v82.07h-81.734v-82.07c0-13.846 6.063-20.974 15.613-26.143zm183.013-11.637c-12.367 0-22.428-10.049-22.428-22.4 0-12.368 10.061-22.429 22.428-22.429 12.351 0 22.4 10.061 22.4 22.429 0 12.351-10.049 22.4-22.4 22.4zm-25.268 11.637c7.064 5.251 15.808 8.363 25.268 8.363 9.457 0 18.199-3.114 25.259-8.368 9.555 5.17 15.622 12.298 15.622 26.148v82.07h-81.762v-82.07c0-13.846 6.063-20.974 15.613-26.143zm118.582 108.212h-32.434v-82.07c0-22.535-11.084-34.598-22.688-41.775 2.695-5.57 4.207-11.814 4.207-18.405 0-23.395-19.02-42.429-42.399-42.429-23.395 0-42.428 19.034-42.428 42.429 0 6.596 1.516 12.844 4.216 18.417-11.597 7.178-22.668 19.241-22.668 41.763v82.07h-36.012v-82.07c0-22.538-11.069-34.6-22.662-41.774 2.695-5.57 4.208-11.814 4.208-18.406 0-23.395-19.02-42.429-42.398-42.429-23.395 0-42.428 19.034-42.428 42.429 0 6.596 1.516 12.844 4.216 18.416-11.598 7.178-22.67 19.241-22.67 41.763v82.07h-32.462c-5.02 0-9.105-4.085-9.105-9.106v-148.815l113.772-113.774 60.59 58.488c1.937 1.871 4.441 2.806 6.945 2.806s5.007-.935 6.944-2.805l60.612-58.495 113.75 113.777v148.819c0 5.022-4.085 9.106-9.106 9.106z"/><g><path d="m428.096 233.992c-2.543 0-5.083-.97-7.029-2.915l-.057-.057c-3.905-3.905-3.905-10.237 0-14.142 3.906-3.904 10.236-3.904 14.142 0 3.905 3.905 3.934 10.265.028 14.171-1.959 1.958-4.523 2.943-7.084 2.943z"/></g></g></svg>