<svg id="_x33_0" enable-background="new 0 0 64 64" fill="#d49943" height="50" viewBox="0 0 64 64" width="50" xmlns="http://www.w3.org/2000/svg"><g><circle cx="40" cy="20" r="1"/><circle cx="48" cy="20" r="1"/><path d="m40.242 25c1.401 0 2.718-.545 3.707-1.535l.051-.051.05.05c.99.991 2.306 1.536 3.708 1.536 2.89 0 5.242-2.352 5.242-5.243v-1.757c0-1.654-1.346-3-3-3h-12c-1.654 0-3 1.346-3 3v1.757c0 2.891 2.352 5.243 5.242 5.243zm-3.242-7c0-.551.448-1 1-1h12c.552 0 1 .449 1 1v1.757c0 1.788-1.454 3.243-3.242 3.243-.867 0-1.681-.337-2.293-.95l-1.465-1.464-1.466 1.464c-.611.613-1.425.95-2.292.95-1.788 0-3.242-1.455-3.242-3.243z"/><path d="m57 33.506v-14.506c0-5.192-3.321-9.612-7.945-11.28l.519-.779c.279-.418.426-.904.426-1.406 0-1.398-1.138-2.535-2.535-2.535h-.59c-.34-1.152-1.396-2-2.656-2h-.438c-1.26 0-2.316.848-2.656 2h-.59c-1.397 0-2.535 1.137-2.535 2.535 0 .502.147.988.426 1.406l.519.779c-3.937 1.42-6.924 4.833-7.725 9.023-2.113-3.438-5.897-5.743-10.22-5.743-6.617 0-12 5.383-12 12v7.789c0 1.675-.832 3.23-2.227 4.16l-1.202.802c-1.61 1.073-2.571 2.869-2.571 4.804 0 1.143.335 2.25.97 3.203l.57.856c.301.45.46.976.46 1.517 0 .857-.409 1.676-1.097 2.19l-.209.158c-1.687 1.266-2.694 3.28-2.694 5.388 0 2.903 1.851 5.47 4.604 6.389l2.079.693.633-1.897-2.079-.693c-1.936-.646-3.237-2.451-3.237-4.492 0-1.482.708-2.898 1.896-3.788l.209-.158c1.186-.889 1.895-2.306 1.895-3.79 0-.938-.275-1.847-.796-2.627l-.57-.856c-.415-.622-.634-1.346-.634-2.093 0-1.265.628-2.438 1.681-3.14l1.202-.802c1.952-1.301 3.117-3.478 3.117-5.824v-7.789c0-5.514 4.486-10 10-10s10 4.486 10 10v10.687l-2.693 3.89-3.623-2.479c2.586-1.354 4.316-4.083 4.316-7.098v-4.395c0-2.556-.75-5.032-2.168-7.16l-1.664 1.109c1.198 1.799 1.832 3.891 1.832 6.051v4.395c0 2.653-1.794 4.992-4.308 5.736l-7.692-5.263v-4.59c0-1.293.824-2.437 2.052-2.846l.265-.088-.633-1.897-.265.088c-2.045.681-3.419 2.588-3.419 4.743v5.117c0 3.317 1.331 6.461 3.613 8.791l-2.413 1.809c-3.256 2.442-5.2 6.33-5.2 10.4 0 7.168 5.832 13 13 13h1 .029 32.353c1.443 0 2.618-1.174 2.618-2.618 0-.404-.096-.809-.276-1.171l-.407-.813c-.208-.415-.317-.879-.317-1.342v-1.005c3.535-1.631 6-5.199 6-9.341v-1.499c0-4.662-2.243-8.985-6-11.705zm-24-1.666c.65.405 1.315.781 2 1.11v1.749c-.489-.267-.971-.548-1.438-.86l-.562-.374zm4 1.938c.656.235 1.323.436 2 .604v1.933c-.678-.187-1.346-.409-2-.671zm4 1.004c.661.096 1.329.149 2 .181v2c-.673-.035-1.34-.103-2-.21zm4 .181c.671-.032 1.339-.086 2-.181v1.972c-.66.106-1.327.174-2 .21zm4-.582c.677-.167 1.344-.369 2-.604v1.866c-.654.263-1.322.484-2 .671zm4-1.431c.685-.329 1.35-.705 2-1.11v1.625l-.563.375c-.467.311-.949.593-1.438.86v-1.75zm-5-27.415c0 .106-.031.208-.09.297l-.9 1.35c-.248-.042-.494-.088-.746-.114l.517-2.068h.684c.295 0 .535.24.535.535zm-4.219-2.535h.438c.43 0 .781.35.781.781 0 .064-.008.129-.022.189l-.758 3.03h-.44l-.757-3.028c-.015-.062-.023-.127-.023-.191 0-.431.351-.781.781-.781zm-3.691 2.832c-.059-.088-.09-.191-.09-.297 0-.295.24-.535.535-.535h.684l.517 2.068c-.252.027-.499.072-.747.114zm-7.09 13.168c0-5.514 4.486-10 10-10h2c5.514 0 10 4.486 10 10v10.465l-.563.375c-3.101 2.067-6.709 3.16-10.437 3.16s-7.336-1.093-10.438-3.16l-.562-.375zm-2 18.201v2.219l-1.042-.713zm1.572 10.709c-.94-.358-1.572-1.275-1.572-2.282v-.187c0-1.346 1.095-2.441 2.441-2.441.263 0 .522.042.772.125l2.041.68-1.807 4.818zm-3.451-3.461-2.108-1.488 1.807-2.61 2.103 1.439c-.897.621-1.55 1.563-1.802 2.659zm-3.743-2.642-5.9-4.164c-2.237-1.579-3.738-3.959-4.26-6.598l11.95 8.177zm-6.378-2.053 3.93 2.774c-.414.293-.904.472-1.43.472-1.379 0-2.5-1.122-2.5-2.5zm-8 10.246c0-3.444 1.645-6.734 4.399-8.8l1.601-1.2v.5c0 2.481 2.019 4.5 4.5 4.5.707 0 1.385-.17 1.995-.472l-1.317 1.903 1.645 1.139 2.052-2.964 3.333 2.352c.341 1.076 1.088 1.997 2.086 2.553-.297.169-.58.363-.828.611l-3.051 3.05c-1.181 1.179-2.748 1.828-4.415 1.828s-3.234-.649-4.414-1.828l-2.879-2.879-1.414 1.414 2.793 2.793-3.058 3.058c-1.871-1.973-3.028-4.631-3.028-7.558zm12 11h-1c-2.418 0-4.648-.793-6.466-2.12l3.123-3.123c1.293.804 2.783 1.243 4.343 1.243 2.201 0 4.271-.857 5.828-2.414l3.051-3.051c.341-.34.811-.535 1.293-.535 1.008 0 1.828.82 1.828 1.829 0 .488-.19.948-.535 1.293l-3.657 3.657c-2.078 2.077-4.84 3.221-7.779 3.221zm9.222-1.808.778-.778v2.586h-3.057c.814-.513 1.582-1.111 2.279-1.808zm23.305.1.407.813c.044.086.066.182.066.277 0 .341-.277.618-.618.618h-20.382v-4.586l.879-.879c.723-.723 1.121-1.684 1.121-2.706 0-.41-.082-.798-.202-1.169l12.249 4.666c1.174.447 2.406.674 3.663.674.788 0 1.552-.097 2.29-.266v.321c0 .772.183 1.546.527 2.237zm5.473-12.583c0 4.572-3.719 8.291-8.29 8.291-1.013 0-2.006-.183-2.951-.543l-13.442-5.121 1.837-4.897 13 4.333c.453.151.926.228 1.405.228 2.449 0 4.441-1.992 4.441-4.441v-1.559h-2v1.559c0 1.346-1.095 2.441-2.441 2.441-.263 0-.522-.042-.772-.125l-16.939-5.646c-.455-.152-.928-.229-1.407-.229-.039 0-.076.011-.115.012l-.326-.224v-4.932c3.305 2.059 7.094 3.144 11 3.144 4.123 0 8.116-1.209 11.547-3.496l.417-.278c3.155 2.349 5.036 6.024 5.036 9.985z"/><path d="m17.707 28.707 2.707-2.707-2.707-2.707-1.414 1.414 1.293 1.293-1.293 1.293z"/><path d="m24.293 23.293-2.707 2.707 2.707 2.707 1.414-1.414-1.293-1.293 1.293-1.293z"/><path d="m22.707 16.293-1.414 1.414.586.586c.723.723 1.121 1.685 1.121 2.707h2c0-1.557-.606-3.021-1.707-4.121z"/><path d="m19.293 16.879-.586-.586-1.414 1.414.586.586c.723.723 1.121 1.685 1.121 2.707h2c0-1.557-.606-3.021-1.707-4.121z"/></g></svg>