<svg id="Capa_1" enable-background="new 0 0 512.003 512.003" fill="#d49943" height="50" viewBox="0 0 512.003 512.003" width="50" xmlns="http://www.w3.org/2000/svg"><g><path d="m97.395 300.43c-.028 0-.057 0-.085-.001-2.649-.021-5.131-1.073-6.989-2.962s-2.869-4.388-2.847-7.036l-14.999-.125c-.055 6.656 2.485 12.935 7.153 17.68 3.014 3.064 6.683 5.245 10.695 6.426v16.018h15v-16.29c3.543-1.186 6.799-3.166 9.542-5.863 4.745-4.668 7.389-10.903 7.444-17.559.055-6.655-2.485-12.934-7.152-17.679-4.667-4.746-10.903-7.39-17.559-7.444-5.468-.045-9.88-4.53-9.835-9.999.045-5.441 4.485-9.837 9.917-9.837.027 0 .056 0 .083.001 5.468.045 9.88 4.53 9.835 10l14.999.123c.092-11.146-7.187-20.666-17.272-23.924v-16.199h-15v16.107c-10.085 3.124-17.468 12.497-17.56 23.604-.113 13.739 10.972 25.01 24.711 25.123 2.648.021 5.13 1.073 6.988 2.962 1.857 1.89 2.869 4.389 2.847 7.037s-1.074 5.131-2.963 6.988c-1.869 1.84-4.335 2.849-6.953 2.849z"/><path d="m138.974 265.595h15v15h-15z"/><path d="m41.098 265.595h15v15h-15z"/><path d="m478.292 199.415-51.709-114.129 21.198 1.278.902-14.973-164.057-9.887c12.466-14.718 11.77-36.85-2.107-50.728-14.623-14.621-38.413-14.619-53.033 0-13.877 13.878-14.573 36.01-2.108 50.728l-164.056 9.887.902 14.973 21.742-1.31-55.259 116.8c-.527.496-1.051.997-1.569 1.506-18.574 18.27-28.921 42.679-29.136 68.73-.191 23.052 7.816 45.49 22.547 63.183l11.527-9.598c-12.463-14.968-19.237-33.954-19.076-53.461.182-22.045 8.938-42.699 24.655-58.159 15.718-15.46 36.537-23.905 58.56-23.691 22.045.182 42.7 8.938 58.16 24.654 15.46 15.717 23.874 36.514 23.691 58.56-.374 45.278-37.328 81.854-82.522 81.854-.23 0-.461-.001-.691-.003-19.508-.16-38.379-7.247-53.139-19.954l-9.787 11.367c17.446 15.021 39.749 23.396 62.801 23.587.276.002.542.003.817.003 53.403-.005 97.077-43.228 97.519-96.731.215-26.052-9.727-50.628-27.997-69.201-1.48-1.505-3.005-2.95-4.563-4.346l-52.796-116.53 123.792-7.46v315.63h-30v30h-66.18l-32.878 50.265v39.735h44.999v-15h-29.999v-20.265l25.991-39.735h221.137l25.991 39.735v20.265h-228.116v15h243.115v-39.735l-32.878-50.265h-66.18v-30h-30v-315.632l124.363 7.495-56.56 119.551.055.026c-18.103 17.712-29.358 42.395-29.358 69.661 0 53.762 43.738 97.5 97.5 97.5s97.5-43.738 97.5-97.5c.001-29.393-13.073-55.789-33.71-73.68zm-379.95-23.852c-.277-.002-.553-.003-.829-.003-14.845 0-29.191 3.307-42.203 9.567l42.823-90.515 40.838 90.137c-12.556-5.898-26.344-9.069-40.629-9.186zm141.751-153.98c4.387-4.388 10.147-6.58 15.91-6.58 5.761 0 11.524 2.193 15.91 6.579 8.772 8.773 8.772 23.048 0 31.82-1.593 1.593-3.371 2.888-5.26 3.903-.109.059-.217.118-.326.174-1.234.636-2.513 1.153-3.822 1.546-.057.017-.114.035-.171.051-1.358.396-2.746.664-4.145.799-.018.002-.036.003-.054.005-.695.066-1.392.098-2.089.099l-.043-.003-.043.003c-.697-.001-1.394-.034-2.089-.1-.018-.002-.035-.003-.053-.005-1.4-.135-2.788-.404-4.147-.8-.055-.016-.11-.033-.166-.05-1.313-.394-2.595-.912-3.831-1.55-.104-.054-.208-.111-.311-.166-1.893-1.015-3.674-2.312-5.269-3.907-8.774-8.771-8.774-23.045-.001-31.818zm53.409 400.409h-74.999v-15h74.999zm-29.999-30h-14.999v-316.534l7.5-.452 7.5.452v316.534zm150.853-297.347 40.679 89.784c-12.35-5.668-26.078-8.834-40.532-8.834-15.519 0-30.2 3.651-43.237 10.129zm47.679 245.817-7.307-12.657-12.99 7.5 7.319 12.676c-8.371 3.878-17.492 6.394-27.086 7.259v-14.638h-15v14.633c-9.59-.873-18.706-3.394-27.072-7.277l7.305-12.653-12.99-7.5-7.289 12.624c-7.668-5.435-14.368-12.139-19.796-19.812l12.614-7.282-7.5-12.99-12.631 7.292c-3.873-8.364-6.386-17.475-7.253-27.06h14.587v-15h-14.584c.87-9.583 3.387-18.692 7.263-27.053l12.619 7.285 7.5-12.99-12.596-7.272c5.429-7.667 12.127-14.367 19.793-19.798l7.274 12.599 12.99-7.5-7.289-12.625c8.362-3.879 17.472-6.398 27.056-7.27v14.598h15v-14.603c9.588.865 18.704 3.378 27.07 7.252l-7.303 12.648 12.99 7.5 7.293-12.632c7.676 5.43 14.384 12.132 19.82 19.804l-12.642 7.299 7.5 12.99 12.67-7.315c3.883 8.369 6.405 17.489 7.276 27.082h-14.65v15h14.652c-.867 9.596-3.385 18.718-7.266 27.09l-12.683-7.322-7.5 12.99 12.66 7.309c-5.436 7.678-12.145 14.386-19.824 19.819z"/><path d="m413.097 263.204-21.325-13.984-8.225 12.543 32.362 21.222 38.022-44.417-11.395-9.753z"/><path d="m295.06 466.992h15v15h-15z"/><path d="m325.061 466.992h45v15h-45z"/></g></svg>